<svg xmlns="http://www.w3.org/2000/svg" width="28" height="21" viewBox="0 0 28 21" fill="none"><path fill-rule="evenodd" clip-rule="evenodd" d="M20.6111 1.83378V1.72573C19.8513 1.60417 19.5035 1.25637 19.3819 0.5H19.2739C19.1523 1.25637 18.8045 1.60079 18.0482 1.72573V1.83378C18.8045 1.95872 19.149 2.30314 19.2739 3.06289H19.3819C19.5069 2.30314 19.8513 1.95872 20.6111 1.83378ZM27.0987 6.16944V6.28425C24.7553 6.49698 23.8571 7.39855 23.6444 9.73858H23.5296C23.3169 7.39855 22.4187 6.49698 20.0753 6.28425V6.16944C22.4187 5.95671 23.3169 5.05852 23.533 2.71511H23.641C23.8571 5.05852 24.7553 5.95671 27.0987 6.16944ZM11.1636 3.54579L25.403 20.4967H21.5908L17.6975 15.8639H10.9002C10.7685 15.8639 10.6639 15.9044 10.5862 15.9854C10.5052 16.0665 10.4646 16.1711 10.4646 16.2961V20.4967H7.58097V4.17385C7.58097 3.63359 8.01656 3.198 8.55683 3.198H10.4174C10.7044 3.198 10.9779 3.32631 11.1636 3.54579ZM10.4646 15.6376L12.5616 13.382H15.6107L10.4646 7.25675V15.6376ZM0.564331 3.20135V20.4966V20.5H3.42437V3.20135H0.564331Z" fill="#DEE0FC"></path></svg>